<svg width="4107" height="3750" viewBox="0 0 4107 3750" fill="none" xmlns="http://www.w3.org/2000/svg">
<g clip-path="url(#clip0_253_19493)">
<path d="M3952.1 954.655C3953.7 940.263 3954.62 925.642 3954.62 910.793C3954.62 902.911 3954.39 895.144 3953.93 887.49L3881.29 864.074C3876.82 833.462 3868.02 804.334 3855.55 777.148L3903.71 717.979C3892.61 698.446 3879.8 679.828 3865.5 662.58L3792.85 686.224C3771.69 664.636 3747.44 646.017 3720.9 631.053L3725.01 554.865C3704.76 545.612 3683.49 538.073 3661.64 532.362L3616.79 594.158C3599.29 591.188 3581.33 589.703 3563.02 589.703C3550.55 589.703 3538.2 590.389 3526.07 591.874L3484.54 527.793C3462.23 532.362 3440.73 538.759 3420.02 546.869V623.172C3392.79 636.765 3367.63 654.127 3345.32 674.573L3274.04 647.159C3258.94 663.722 3245.1 681.541 3232.97 700.503L3277.93 762.185C3263.98 788.685 3253.68 817.356 3247.62 847.626L3173.83 867.272C3172.23 881.665 3171.31 896.286 3171.31 911.135C3171.31 919.017 3171.54 926.784 3172 934.437L3244.64 957.854C3249.11 988.466 3257.91 1017.59 3270.38 1044.78L3222.22 1103.95C3233.32 1123.48 3246.13 1142.1 3260.43 1159.35L3333.08 1135.7C3354.24 1157.29 3378.49 1175.91 3405.03 1190.87L3400.92 1267.06C3421.16 1276.32 3442.44 1283.85 3464.29 1289.57L3509.14 1227.77C3526.64 1230.74 3544.6 1232.22 3562.91 1232.22C3575.38 1232.22 3587.73 1231.54 3599.86 1230.05L3641.39 1294.13C3663.69 1289.57 3685.2 1283.17 3705.91 1275.06V1198.76C3733.14 1185.16 3758.3 1167.8 3780.61 1147.35L3851.88 1174.77C3866.99 1158.21 3880.83 1140.39 3892.95 1121.43L3848 1059.74C3861.95 1033.24 3872.25 1004.57 3878.31 974.302L3952.1 954.655ZM3562.91 1064.08C3478.02 1064.08 3409.27 995.434 3409.27 910.678C3409.27 825.923 3478.02 757.273 3562.91 757.273C3647.79 757.273 3716.55 825.923 3716.55 910.678C3716.55 995.434 3647.79 1064.08 3562.91 1064.08Z" fill="url(#paint0_linear_253_19493)"/>
<path d="M2101.77 1084C2105.93 1046.62 2108.21 1008.71 2108.21 970.264C2108.21 950.035 2107.54 929.807 2106.33 909.846L1918.24 849.025C1906.7 769.851 1883.89 694.295 1851.7 623.963L1976.46 470.706C1947.62 420.066 1914.48 371.973 1877.59 327.228L1689.5 388.585C1634.62 332.587 1571.97 284.359 1503.28 245.643L1514.01 48.3114C1461.56 24.4655 1406.55 4.90647 1349.8 -9.82977L1233.62 150.259C1188.27 142.623 1141.85 138.604 1094.36 138.604C1062.03 138.604 1030.1 140.48 998.704 144.097L891.107 -21.8867C833.418 -10.2317 777.608 6.38007 723.944 27.4127L724.212 225.146C653.375 260.245 588.307 305.124 530.619 358.174L346.014 287.038C306.839 329.774 271.152 375.992 239.759 425.023L356.21 584.711C320.121 653.301 293.423 727.652 277.726 805.888L86.6818 856.661C82.5229 894.038 80.2422 931.95 80.2422 970.398C80.2422 990.627 80.913 1010.86 82.1204 1030.82L270.213 1091.64C281.751 1170.81 304.558 1246.37 336.757 1316.7L211.988 1469.96C240.832 1520.6 273.97 1568.69 310.864 1613.43L498.957 1552.08C553.828 1608.08 616.481 1656.3 685.171 1695.02L674.438 1892.35C726.895 1916.2 781.901 1935.76 838.651 1950.49L954.833 1790.4C1000.18 1798.04 1046.6 1802.06 1094.09 1802.06C1126.42 1802.06 1158.35 1800.18 1189.75 1796.57L1297.34 1962.55C1355.03 1950.89 1410.84 1934.28 1464.51 1913.25L1464.24 1715.52C1535.08 1680.42 1600.14 1635.54 1657.83 1582.49L1842.44 1653.62C1881.61 1610.89 1917.3 1564.67 1948.69 1515.64L1832.24 1355.95C1868.33 1287.36 1895.03 1213.01 1910.73 1134.77L2101.77 1084ZM1094.09 1367.47C874.471 1367.47 696.307 1189.7 696.307 970.264C696.307 750.828 874.337 573.056 1094.09 573.056C1313.85 573.056 1491.88 750.828 1491.88 970.264C1491.88 1189.7 1313.85 1367.47 1094.09 1367.47Z" fill="url(#paint1_linear_253_19493)"/>
<path d="M3528.1 1174.61H586.506C494.069 1174.61 419.137 1249.43 419.137 1341.84V3203.38C419.137 3295.67 494.069 3370.49 586.506 3370.49H3528.22C3620.65 3370.49 3695.7 3295.67 3695.7 3203.38V1341.84C3695.7 1249.54 3620.77 1174.61 3528.22 1174.61H3528.1ZM3553.61 3172.08H560.994V1309.74H3553.61V3172.08Z" fill="#082599"/>
<path d="M3553.61 1309.74H559.965V3170.14H3553.61V1309.74Z" fill="url(#paint2_linear_253_19493)"/>
<path d="M559.965 1309.74V3170.14H1276L2742.05 1309.74H559.965Z" fill="url(#paint3_linear_253_19493)"/>
<path d="M2205.74 2260.56C2205.74 2308.08 2177.48 2346.57 2142.59 2346.57C2107.7 2346.57 2079.44 2308.08 2079.44 2260.56C2079.44 2213.04 2107.7 2174.54 2142.59 2174.54C2177.48 2174.54 2205.74 2213.04 2205.74 2260.56Z" fill="#03B9E1"/>
<path d="M4093.93 3282.31H22.736C14.2703 3282.31 7.40625 3289.28 7.40625 3297.73V3376.89C20.9056 3438.91 169.284 3466.44 261.377 3475.35H3855.4C3947.49 3466.44 4095.87 3438.91 4109.37 3376.89V3297.73C4109.37 3289.28 4102.39 3282.31 4094.04 3282.31H4093.93Z" fill="url(#paint4_linear_253_19493)"/>
<path d="M261.263 3475.24H3855.29C3947.38 3466.33 4095.76 3438.8 4109.26 3376.77V3370.49H7.29297V3376.77C20.7923 3438.8 169.171 3466.33 261.263 3475.24Z" fill="#082599"/>
<path d="M2533.96 3282.31H1598.27C1596.32 3282.31 1594.72 3283.91 1594.72 3285.85V3304.24C1597.81 3318.63 1631.9 3325.03 1653.07 3327.08H2479.04C2500.21 3325.03 2534.3 3318.63 2537.39 3304.24V3285.85C2537.39 3283.91 2535.79 3282.31 2533.84 3282.31H2533.96Z" fill="white"/>
<g opacity="0.34">
<g opacity="0.6">
<path d="M4093.93 3680.04H22.736C14.2703 3680.04 7.40625 3673.19 7.40625 3664.74V3585.58C20.9056 3523.55 169.284 3496.02 261.377 3487.12H3855.4C3947.49 3496.02 4095.87 3523.55 4109.37 3585.58V3664.74C4109.37 3673.19 4102.39 3680.04 4094.04 3680.04H4093.93Z" fill="#030D36"/>
<path d="M261.263 3487.12H3855.29C3947.38 3496.02 4095.76 3523.55 4109.26 3585.58V3591.86H7.29297V3585.58C20.7923 3523.55 169.171 3496.02 261.263 3487.12Z" fill="#03050B"/>
<path d="M2533.96 3680.04H1598.27C1596.32 3680.04 1594.72 3678.44 1594.72 3676.5V3658.11C1597.81 3643.72 1631.9 3637.32 1653.07 3635.27H2479.04C2500.21 3637.32 2534.3 3643.72 2537.39 3658.11V3676.5C2537.39 3678.44 2535.79 3680.04 2533.84 3680.04H2533.96Z" fill="#03050B"/>
</g>
</g>
<path opacity="0.1" d="M2684.96 1846.37C2283.99 1838.72 2060.56 1671.04 2060.56 1670.92C2060.56 1670.92 1832.68 1838.72 1431.59 1846.37C1429.87 2038.62 1451.72 2229.72 1506.52 2426.98C1586.6 2715.18 1807.74 2826.09 2060.56 2909.13C2313.39 2826.09 2539.22 2711.18 2617.81 2422.64C2668.6 2236.23 2686.79 2038.73 2685.08 1846.37H2684.96Z" fill="black"/>
<path d="M2641.03 1793.49C2257.33 1785.83 2060.56 1617.58 2060.56 1617.46C2060.56 1617.46 1863.91 1785.83 1480.09 1793.49C1478.38 1986.41 1488.44 2187.34 1537.06 2374.33C1612.23 2663.77 1818.61 2776.29 2060.56 2859.56C2302.52 2776.29 2508.9 2663.77 2584.06 2374.33C2632.68 2187.34 2642.75 1986.3 2641.03 1793.49Z" fill="white"/>
<path d="M2592.76 1830.5C2240.86 1823.53 2060.57 1669.21 2060.57 1669.09C2060.57 1669.09 1880.27 1823.41 1528.37 1830.5C1526.77 2007.32 1536.04 2191.68 1580.65 2363.02C1649.64 2628.48 1838.74 2731.51 2060.68 2807.93C2282.5 2731.51 2471.72 2628.48 2540.71 2363.02C2585.21 2191.56 2594.48 2007.32 2592.99 1830.5H2592.76Z" fill="#082599"/>
<path d="M2545.74 1866.48C2224.96 1860.08 2060.56 1719.35 2060.45 1719.35V2757.67C2262.71 2687.99 2435.23 2593.98 2498.03 2352.05C2538.65 2195.79 2547.11 2027.76 2545.62 1866.48H2545.74Z" fill="#03B9E1"/>
<path d="M2107.69 2283.4C2107.69 2318.93 2086.53 2347.83 2060.45 2347.83C2034.36 2347.83 2013.2 2319.04 2013.2 2283.4C2013.2 2247.76 2034.36 2218.98 2060.45 2218.98C2086.53 2218.98 2107.69 2247.76 2107.69 2283.4Z" fill="#03B9E1"/>
<path d="M2062.62 2211.33H2045.01C2018.47 2211.33 1996.96 2232.8 1996.96 2259.3V2389.29C1996.96 2415.79 2018.47 2437.26 2045.01 2437.26H2062.62C2089.16 2437.26 2110.67 2415.79 2110.67 2389.29V2259.3C2110.67 2232.8 2089.16 2211.33 2062.62 2211.33Z" fill="#C0F0FF"/>
<path opacity="0.15" d="M2314.42 2174.32H2258.71V2135.37C2258.71 2038.73 2180 1960.14 2083.21 1960.14C1986.43 1960.14 1907.72 2038.73 1907.72 2135.37V2174.32H1852.01C1846.17 2174.32 1841.48 2179 1841.48 2184.82V2479.19C1841.48 2485.01 1846.17 2489.69 1852.01 2489.69H2314.3C2320.14 2489.69 2324.83 2485.01 2324.83 2479.19V2184.82C2324.83 2179 2320.14 2174.32 2314.3 2174.32H2314.42ZM1965.72 2174.32V2135.37C1965.72 2070.6 2018.46 2018.06 2083.21 2018.06C2147.97 2018.06 2200.7 2070.71 2200.7 2135.37V2174.32H1965.61H1965.72ZM2117.42 2412.13C2118.45 2417.39 2115.13 2422.3 2110.56 2422.3H2055.64C2051.07 2422.3 2047.75 2417.27 2048.78 2412.13L2068.46 2316.18C2050.15 2309.33 2038.03 2290.14 2042.26 2268.67C2045.46 2252.56 2058.96 2239.42 2075.09 2236.46C2101.52 2231.66 2124.51 2251.76 2124.51 2277.23C2124.51 2295.05 2113.3 2310.13 2097.51 2316.07L2117.31 2412.02L2117.42 2412.13Z" fill="black"/>
<path d="M1937.58 2221.72V2107.15C1937.58 2042.39 1990.32 1989.84 2055.07 1989.84C2119.82 1989.84 2172.56 2042.5 2172.56 2107.15V2221.72H2230.45V2107.15C2230.45 2010.52 2151.74 1931.93 2054.96 1931.93C1958.17 1931.93 1879.46 2010.52 1879.46 2107.15V2221.72H1937.35H1937.58Z" fill="white"/>
<path d="M2284.9 2146.22H2053.93V2207.9C2076.69 2208.13 2095.11 2226.52 2095.11 2249.25C2095.11 2267.07 2083.9 2282.15 2068.11 2288.09L2087.9 2384.04C2088.93 2389.29 2085.61 2394.2 2081.04 2394.2H2053.93V2461.59H2284.9C2290.74 2461.59 2295.43 2456.91 2295.43 2451.09V2156.73C2295.43 2150.9 2290.74 2146.22 2284.9 2146.22Z" fill="#01064A"/>
<path d="M2053.58 2394.2H2026.24C2021.67 2394.2 2018.35 2389.18 2019.38 2384.04L2039.06 2288.09C2020.75 2281.23 2008.62 2262.04 2012.86 2240.57C2016.06 2224.46 2029.56 2211.33 2045.69 2208.36C2048.44 2207.9 2051.18 2207.78 2053.93 2207.78V2146.1H1822.49C1816.66 2146.1 1811.97 2150.79 1811.97 2156.61V2450.97C1811.97 2456.8 1816.66 2461.48 1822.49 2461.48H2053.93V2394.09H2053.58V2394.2Z" fill="#111A75"/>
</g>
<defs>
<linearGradient id="paint0_linear_253_19493" x1="3320.61" y1="1056.2" x2="4247.87" y2="498.096" gradientUnits="userSpaceOnUse">
<stop stop-color="#061968"/>
<stop offset="1" stop-color="#01074B"/>
<stop offset="1"/>
</linearGradient>
<linearGradient id="paint1_linear_253_19493" x1="466.758" y1="1346.84" x2="2867.58" y2="-98.1084" gradientUnits="userSpaceOnUse">
<stop stop-color="#061968"/>
<stop offset="1"/>
</linearGradient>
<linearGradient id="paint2_linear_253_19493" x1="3621.68" y1="1240.86" x2="-550.128" y2="3912.47" gradientUnits="userSpaceOnUse">
<stop offset="0.05" stop-color="#496BF2"/>
<stop offset="0.401042" stop-color="#00316F"/>
<stop offset="0.49" stop-color="#001D5E"/>
<stop offset="0.6" stop-color="#001052"/>
<stop offset="0.74" stop-color="#00084C"/>
<stop offset="1" stop-color="#01064A"/>
</linearGradient>
<linearGradient id="paint3_linear_253_19493" x1="3291.18" y1="724.789" x2="-880.632" y2="3396.4" gradientUnits="userSpaceOnUse">
<stop stop-color="white" stop-opacity="0.2"/>
<stop offset="1" stop-color="#EBEAEA" stop-opacity="0"/>
</linearGradient>
<linearGradient id="paint4_linear_253_19493" x1="7.29185" y1="3378.83" x2="4109.26" y2="3378.83" gradientUnits="userSpaceOnUse">
<stop offset="0.05" stop-color="#4364E5"/>
<stop offset="0.46875" stop-color="#001D5E"/>
<stop offset="0.6" stop-color="#001052"/>
<stop offset="0.74" stop-color="#00084C"/>
<stop offset="1" stop-color="#01064A"/>
</linearGradient>
<clipPath id="clip0_253_19493">
<rect width="4107" height="3750" fill="white"/>
</clipPath>
</defs>
</svg>
