<svg width="657" height="111" viewBox="0 0 657 111" fill="none" xmlns="http://www.w3.org/2000/svg">
<path fill-rule="evenodd" clip-rule="evenodd" d="M48.0492 110.77C54.7033 112.201 66.8237 88.8552 75.1209 58.6254C83.418 28.3957 84.75 2.72963 78.0958 1.29874C72.5913 0.115066 63.3461 15.8867 55.619 38.4843C61.5873 22.5339 68.435 11.8227 72.7491 12.7504C78.3962 13.9648 77.5634 34.6628 70.8888 58.9807C64.2143 83.2986 54.2256 102.028 48.5784 100.813C44.8636 100.015 43.9529 90.7847 45.6645 77.6394C42.6144 96.2946 43.2844 109.746 48.0492 110.77Z" fill="url(#paint0_linear_205_4472)"/>
<path fill-rule="evenodd" clip-rule="evenodd" d="M119.211 25.701C116.004 19.6518 88.274 28.0349 57.2744 44.4253C26.2748 60.8157 3.74447 79.0066 6.95148 85.0559C9.03888 88.9932 21.5155 86.8163 38.5207 80.2967C25.946 84.7853 16.9827 86.101 15.3869 83.0909C12.6813 77.9876 32.177 62.383 58.9316 48.2371C85.6862 34.0912 109.568 26.7607 112.274 31.864C113.995 35.11 106.733 42.6047 94.3352 51.2702C111.211 39.9997 121.443 29.9106 119.211 25.701Z" fill="url(#paint1_linear_205_4472)"/>
<path fill-rule="evenodd" clip-rule="evenodd" d="M113.063 97.0869C117.403 91.7913 98.955 69.4554 71.8581 47.1983C44.7612 24.9413 19.2766 11.1913 14.9367 16.4869C12.1096 19.9365 18.9523 30.6168 31.5564 43.796C22.5371 33.917 17.8467 26.1439 20.0087 23.5058C23.6699 19.0383 45.5963 30.9889 68.9827 50.1981C92.369 69.4074 108.359 88.6012 104.698 93.0687C102.366 95.9142 92.6238 92.099 79.814 83.9897C96.7561 95.2227 110.04 100.776 113.063 97.0869Z" fill="url(#paint2_linear_205_4472)"/>
<path d="M182.859 22.1978L208.781 89.4165H199.172L193.219 73.9478H162.891L156.938 89.4165H147.328L173.25 22.1978H182.859ZM166.547 64.3384H189.516L178.078 34.7134L166.547 64.3384ZM206.859 22.1978H260.625V31.8071H238.547V89.4165H228.938V31.8071H206.859V22.1978ZM329.766 79.8071C329.766 81.1196 329.516 82.3696 329.016 83.5571C328.516 84.7134 327.828 85.729 326.953 86.604C326.078 87.479 325.047 88.1665 323.859 88.6665C322.703 89.1665 321.469 89.4165 320.156 89.4165H281.766C280.453 89.4165 279.203 89.1665 278.016 88.6665C276.859 88.1665 275.844 87.479 274.969 86.604C274.094 85.729 273.406 84.7134 272.906 83.5571C272.406 82.3696 272.156 81.1196 272.156 79.8071V31.8071C272.156 30.4946 272.406 29.2603 272.906 28.104C273.406 26.9165 274.094 25.9009 274.969 25.0571C275.844 24.1821 276.859 23.4946 278.016 22.9946C279.203 22.4634 280.453 22.1978 281.766 22.1978H320.156C321.469 22.1978 322.703 22.4634 323.859 22.9946C325.047 23.4946 326.078 24.1821 326.953 25.0571C327.828 25.9009 328.516 26.9165 329.016 28.104C329.516 29.2603 329.766 30.4946 329.766 31.8071V79.8071ZM281.766 31.8071V79.8071H320.156V31.8071H281.766ZM381.75 89.4165L356.672 40.1509V89.4165H347.062V22.1978H357.562L383.156 72.8228L408.797 22.1978H419.25V89.4165H409.688V40.1509L384.609 89.4165H381.75ZM474.984 89.4165H465.375V22.1978H474.984L515.391 74.3228V22.1978H525V89.4165H515.391L474.984 37.2915V89.4165ZM542.25 22.1978H591.234V31.8071H551.859V51.0259H585.469V60.6353H551.859V79.8071H591.234V89.4165H542.25V22.1978ZM599.859 22.1978H653.625V31.8071H631.547V89.4165H621.938V31.8071H599.859V22.1978Z" fill="#F9F9F9"/>
<defs>
<linearGradient id="paint0_linear_205_4472" x1="63.0725" y1="1.23633" x2="52.3004" y2="120.472" gradientUnits="userSpaceOnUse">
<stop stop-color="#03B9E1"/>
<stop offset="0.520833" stop-color="#082599"/>
<stop offset="1" stop-color="#090D1E"/>
</linearGradient>
<linearGradient id="paint1_linear_205_4472" x1="16.8641" y1="96.345" x2="126.265" y2="17.6171" gradientUnits="userSpaceOnUse">
<stop stop-color="#03B9E1"/>
<stop offset="0.520833" stop-color="#082599"/>
<stop offset="1" stop-color="#090D1E"/>
</linearGradient>
<linearGradient id="paint2_linear_205_4472" x1="8.35538" y1="29.9921" x2="123.245" y2="100.469" gradientUnits="userSpaceOnUse">
<stop stop-color="#03B9E1"/>
<stop offset="0.520833" stop-color="#082599"/>
<stop offset="1" stop-color="#090D1E"/>
</linearGradient>
</defs>
</svg>
