<svg width="4122" height="3785" viewBox="0 0 4122 3785" fill="none" xmlns="http://www.w3.org/2000/svg">
<g clip-path="url(#clip0_302_4795)">
<path d="M960.442 118.75C960.435 120.738 961.351 122.687 963.053 123.887C969.626 128.472 976.12 133.214 982.368 137.984C985.027 140.009 988.782 139.408 990.765 136.627C992.747 133.846 992.212 129.958 989.553 127.933C983.179 123.062 976.538 118.218 969.828 113.543C967.095 111.627 963.36 112.401 961.492 115.271C960.791 116.349 960.455 117.567 960.441 118.773L960.442 118.75Z" fill="#030D36"/>
<path d="M63.5843 616.917C63.5336 631.422 64.0018 646.079 64.9759 660.472C65.2033 663.883 68.07 666.435 71.3612 666.16C74.6523 665.885 77.162 662.952 76.9178 659.471C75.8003 642.888 75.3884 626.034 75.629 609.316C75.6307 609.293 75.6324 609.27 75.624 609.235C75.6384 605.841 73.0189 603.089 69.7283 603.066C66.4258 603.053 63.6969 605.822 63.6469 609.248C63.6069 611.815 63.5905 614.359 63.5742 616.905L63.5843 616.917ZM70.49 527.19C70.4712 530.205 72.5922 532.831 75.5523 533.278C78.8185 533.77 81.8919 531.416 82.4034 528.022C84.8909 511.542 88.1057 494.94 91.9337 478.703C92.7513 475.353 90.75 472.025 87.5504 471.24C84.3389 470.465 81.0985 472.544 80.3148 475.884C76.405 492.472 73.1304 509.425 70.5848 526.233C70.5386 526.551 70.5143 526.871 70.512 527.192L70.49 527.19ZM104.264 398.588C104.253 401.065 105.678 403.401 108.049 404.335C111.126 405.571 114.607 403.956 115.822 400.76C121.756 385.163 128.4 369.673 135.545 354.71C137.026 351.637 135.817 347.916 132.861 346.402C129.902 344.911 126.313 346.198 124.83 349.294C117.529 364.566 110.749 380.392 104.691 396.313C104.402 397.061 104.277 397.832 104.264 398.588ZM164.499 280.62C164.492 282.603 165.405 284.548 167.094 285.733C169.822 287.644 173.549 286.872 175.432 284.033C184.523 270.216 194.294 256.618 204.517 243.614C206.62 240.94 206.265 237.027 203.698 234.886C201.144 232.735 197.377 233.16 195.274 235.835C184.843 249.111 174.84 263.002 165.56 277.115C164.86 278.19 164.513 279.416 164.499 280.62ZM248.459 179.333C248.455 180.847 248.982 182.352 250.042 183.527C252.283 186.023 256.074 186.15 258.506 183.797C270.309 172.394 282.757 161.369 295.476 150.994C298.091 148.86 298.564 144.948 296.559 142.261C294.531 139.573 290.776 139.116 288.161 141.25C275.173 151.825 262.474 163.096 250.411 174.732C249.135 175.962 248.478 177.637 248.483 179.312L248.459 179.333ZM351.85 99.647C351.849 100.691 352.099 101.763 352.643 102.742C354.287 105.69 357.946 106.679 360.817 104.953C374.782 96.4998 389.239 88.563 403.772 81.3655C406.768 79.8887 408.066 76.1715 406.677 73.0809C405.287 69.9903 401.718 68.6859 398.722 70.1627C383.879 77.5106 369.113 85.598 354.856 94.2485C352.933 95.4217 351.858 97.514 351.839 99.6575L351.85 99.647ZM469.408 45.4151C469.405 46.0342 469.492 46.6367 469.677 47.2575C470.655 50.5259 473.999 52.3307 477.149 51.289C492.526 46.2265 508.275 41.7864 523.979 38.0887C527.218 37.3285 529.26 34.0071 528.564 30.6553C527.868 27.3034 524.69 25.2235 521.45 25.9836C505.41 29.7496 489.322 34.2807 473.639 39.4481C471.067 40.2893 469.421 42.7665 469.408 45.4151ZM595.349 19.4676C595.349 19.6166 595.359 19.7779 595.368 19.9391C595.606 23.3622 598.475 25.891 601.778 25.6055C615.935 24.3804 630.294 23.6971 644.457 23.5735C646.347 23.5564 648.248 23.5513 650.137 23.5571C653.439 23.5697 656.158 20.7889 656.208 17.3629C656.198 17.3507 656.211 17.3173 656.213 17.2944C656.227 13.9004 653.598 11.1363 650.305 11.1358C648.373 11.127 646.438 11.1411 644.504 11.1551C630.032 11.2801 615.373 11.9767 600.915 13.2381C597.767 13.5115 595.371 16.2576 595.359 19.4797L595.349 19.4676ZM723.36 23.3253C723.351 26.3526 725.472 28.9782 728.432 29.4257C744.275 31.7707 760.247 34.8701 775.906 38.613C779.117 39.3878 782.37 37.2981 783.131 33.9563C783.883 30.6023 781.947 27.2785 778.724 26.5143C762.741 22.6799 746.43 19.5225 730.26 17.1317C726.982 16.6505 723.931 19.0065 723.419 22.4002C723.373 22.7181 723.361 23.0271 723.348 23.3359L723.36 23.3253ZM847.057 56.5304C847.045 59.0071 848.48 61.3554 850.851 62.2894C865.857 68.2347 880.731 74.8935 895.088 82.1011C898.047 83.5922 901.647 82.2953 903.109 79.1973C904.57 76.0993 903.371 72.3911 900.401 70.9106C885.746 63.5446 870.541 56.7368 855.234 50.6787C852.156 49.4658 848.686 51.0701 847.46 54.2762C847.183 55.0139 847.048 55.7728 847.045 56.5411L847.057 56.5304Z" fill="#030D36"/>
<path d="M76.95 741.555C76.9391 741.991 76.9944 742.432 77.0817 742.886C78.7798 751.14 80.6473 759.349 82.6238 767.289C83.4565 770.61 86.7277 772.574 89.9275 771.683C93.1493 770.793 95.0475 767.364 94.2469 764.056C92.3142 756.268 90.4885 748.235 88.8223 740.144C88.1353 736.798 84.9306 734.69 81.6972 735.441C78.8807 736.094 76.9567 738.695 76.95 741.555Z" fill="#030D36"/>
<path d="M335.882 1121.27C335.878 1123.36 336.876 1125.39 338.714 1126.55C345.506 1130.85 352.513 1135.09 359.569 1139.13C362.443 1140.79 366.113 1139.69 367.747 1136.69C369.382 1133.67 368.362 1129.9 365.476 1128.25C358.57 1124.28 351.699 1120.13 345.056 1115.91C342.246 1114.13 338.544 1115.07 336.794 1118C336.173 1119.03 335.889 1120.16 335.882 1121.27Z" fill="#F9F9F9"/>
<path d="M427.217 1169.1C427.206 1171.57 428.643 1173.9 431.001 1174.84C445.958 1180.83 461.4 1186.23 476.887 1190.91C480.062 1191.87 483.398 1189.98 484.356 1186.68C485.29 1183.39 483.53 1179.93 480.355 1178.98C465.183 1174.37 450.063 1169.09 435.406 1163.24C432.329 1162 428.86 1163.6 427.634 1166.81C427.345 1167.56 427.22 1168.33 427.207 1169.08L427.217 1169.1ZM548.76 1202.39C548.753 1205.39 550.852 1208.02 553.8 1208.48C569.764 1210.94 585.999 1212.74 602.068 1213.82C605.354 1214.04 608.247 1211.44 608.484 1208.02C608.748 1204.55 606.262 1201.63 602.964 1201.43C587.235 1200.39 571.327 1198.63 555.703 1196.2C552.45 1195.7 549.367 1198.04 548.833 1201.43C548.787 1201.75 548.761 1202.09 548.759 1202.41L548.76 1202.39ZM674.68 1207.26C674.67 1207.4 674.681 1207.54 674.693 1207.67C674.898 1211.08 677.741 1213.66 681.04 1213.42C697.14 1212.19 713.396 1210.23 729.371 1207.58C732.649 1207.04 734.902 1203.85 734.419 1200.46C733.936 1197.06 730.885 1194.76 727.629 1195.3C711.978 1197.89 696.058 1199.81 680.291 1201.01C677.124 1201.26 674.684 1204 674.67 1207.25L674.68 1207.26ZM798.866 1183.28C798.867 1183.86 798.932 1184.46 799.108 1185.04C800.031 1188.32 803.358 1190.18 806.527 1189.18C822.008 1184.32 837.512 1178.72 852.576 1172.51C855.665 1171.25 857.211 1167.63 856.016 1164.45C854.833 1161.26 851.371 1159.71 848.281 1160.98C833.515 1167.04 818.351 1172.53 803.187 1177.3C800.583 1178.13 798.881 1180.61 798.876 1183.29L798.866 1183.28ZM915.296 1131.8C915.296 1132.82 915.527 1133.85 916.029 1134.8C917.625 1137.79 921.257 1138.85 924.158 1137.16C938.304 1128.92 952.284 1119.97 965.725 1110.54C968.49 1108.61 969.235 1104.75 967.396 1101.92C965.556 1099.08 961.844 1098.35 959.092 1100.27C945.92 1109.5 932.241 1118.27 918.384 1126.33C916.407 1127.49 915.296 1129.61 915.286 1131.79L915.296 1131.8ZM1018.41 1055.42C1018.41 1056.89 1018.91 1058.36 1019.9 1059.53C1022.08 1062.08 1025.87 1062.27 1028.35 1059.98C1040.47 1048.76 1052.27 1036.88 1063.42 1024.68C1065.7 1022.16 1065.62 1018.24 1063.25 1015.9C1060.86 1013.56 1057.07 1013.68 1054.79 1016.18C1043.87 1028.13 1032.31 1039.76 1020.45 1050.75C1019.12 1051.98 1018.43 1053.7 1018.43 1055.41L1018.41 1055.42ZM1103.16 957.726C1103.16 959.664 1104.02 961.547 1105.64 962.75C1108.32 964.726 1112.06 964.07 1114.01 961.258C1123.49 947.585 1132.52 933.33 1140.84 918.911C1142.53 915.944 1141.63 912.142 1138.8 910.408C1135.97 908.674 1132.28 909.667 1130.58 912.621C1122.43 926.742 1113.58 940.701 1104.3 954.09C1103.54 955.195 1103.17 956.465 1103.16 957.726ZM1165.36 843.305C1165.35 845.713 1166.7 848.009 1168.99 848.995C1172.03 850.308 1175.54 848.81 1176.86 845.633C1183.19 830.227 1189.02 814.303 1194.14 798.33C1195.22 795.068 1193.48 791.564 1190.36 790.52C1187.23 789.464 1183.84 791.269 1182.79 794.533C1177.77 810.18 1172.06 825.78 1165.86 840.874C1165.52 841.665 1165.37 842.503 1165.38 843.307L1165.36 843.305ZM1202.17 717.834C1202.17 720.77 1204.16 723.363 1207.05 723.897C1210.29 724.491 1213.43 722.245 1214.04 718.87C1217.06 702.325 1219.42 685.53 1221.08 668.902C1221.38 665.471 1219.03 662.451 1215.74 662.152C1212.45 661.831 1209.5 664.354 1209.17 667.772C1207.55 684.047 1205.23 700.502 1202.27 716.706C1202.19 717.09 1202.16 717.478 1202.16 717.845L1202.17 717.834ZM1208.18 537.643C1208.19 537.896 1208.19 538.149 1208.22 538.415C1210.09 554.681 1211.31 571.234 1211.85 587.591C1211.97 591.016 1214.73 593.663 1218.04 593.516C1221.35 593.357 1223.99 590.514 1223.82 587.028C1223.28 570.315 1222.03 553.427 1220.11 536.802C1219.73 533.404 1216.74 531.005 1213.46 531.441C1210.42 531.848 1208.2 534.548 1208.18 537.643Z" fill="#F9F9F9"/>
<path d="M1186.01 434.014C1186.01 434.635 1186.1 435.238 1186.28 435.86C1188.62 443.712 1190.78 451.654 1192.76 459.469C1193.6 462.78 1196.89 464.733 1200.08 463.829C1203.28 462.915 1205.22 459.511 1204.36 456.188C1202.35 448.221 1200.12 440.102 1197.75 432.088C1196.77 428.813 1193.42 427.005 1190.26 428.048C1187.68 428.891 1186.04 431.373 1186.02 434.027L1186.01 434.014Z" fill="#F9F9F9"/>
<path d="M1045.71 420.503C1047.2 423.11 1046.91 426.433 1045 428.768L990.461 495.421C1002.03 534.072 1007.72 574.977 1006.7 616.758L1076.42 664.063C1078.86 665.727 1080.01 668.827 1079.27 671.773L1053.89 772.976C1053.16 775.934 1050.68 778.093 1047.76 778.371L964.259 786.024C945.465 823.21 921.202 856.361 892.837 884.678L909.329 969.716C909.899 972.696 908.583 975.751 906.053 977.32L819.319 1031.08C816.788 1032.65 813.589 1032.39 811.359 1030.43L747.727 974.614C710.333 987.06 670.834 993.433 630.567 992.849L584.153 1065.73C582.522 1068.28 579.52 1069.51 576.688 1068.77L479.414 1043.6C476.571 1042.87 474.519 1040.33 474.283 1037.31L467.861 950.765C432.227 931.692 400.545 906.9 373.571 877.797L291.402 895.879C288.522 896.505 285.592 895.175 284.108 892.568L233.276 803.202C231.792 800.594 232.077 797.272 233.991 794.936L288.528 728.284C276.957 689.633 271.266 648.727 272.289 606.947L202.558 559.629C200.118 557.966 198.971 554.865 199.714 551.919L225.09 450.716C225.823 447.758 228.299 445.6 231.228 445.334L314.731 437.681C333.525 400.495 357.788 367.344 386.153 339.027L369.661 253.989C369.09 251.009 370.406 247.954 372.937 246.385L459.671 192.627C462.201 191.058 465.401 191.316 467.63 193.275L531.263 249.09C568.656 236.645 608.156 230.272 648.422 230.856L694.836 157.974C696.468 155.423 699.47 154.197 702.301 154.935L799.575 180.103C802.418 180.83 804.471 183.374 804.706 186.399L811.129 272.94C846.762 292.013 878.444 316.805 905.418 345.908L987.588 327.825C990.467 327.2 993.387 328.517 994.881 331.137L1045.71 420.503Z" fill="#F9F9F9"/>
<path d="M541.194 612.516C541.168 622.184 542.467 631.899 545.142 641.401C552.458 667.454 569.163 688.869 592.172 701.708C615.169 714.558 641.722 717.273 666.913 709.373C692.125 701.475 712.961 683.899 725.6 659.905C738.25 635.9 741.172 608.322 733.856 582.268C726.54 556.215 709.825 534.788 686.826 521.961C663.829 509.111 637.276 506.396 612.085 514.296C586.873 522.194 566.037 539.77 553.398 563.764C545.373 578.996 541.264 595.695 541.205 612.505L541.194 612.516ZM719.806 611.298C719.76 625.031 716.403 638.67 709.839 651.121C699.512 670.74 682.495 685.079 661.894 691.543C641.304 697.995 619.614 695.769 600.841 685.281C582.046 674.792 568.406 657.29 562.421 636.003C556.436 614.717 558.819 592.2 569.158 572.571C579.484 552.952 596.513 538.602 617.103 532.149C637.692 525.697 659.382 527.923 678.167 538.4C696.962 548.889 710.602 566.392 716.587 587.678C718.774 595.445 719.832 603.375 719.808 611.275L719.806 611.298Z" fill="#030D36"/>
<path d="M385.97 614.853C385.583 731.077 460.732 836.751 574.041 866.071C594.959 871.482 615.942 873.981 636.619 873.817C748.67 872.902 851.415 793.72 880.989 675.823C881.514 673.712 882.019 671.577 882.502 669.44C885.749 655.069 887.83 640.468 888.702 625.908C888.798 624.203 888.894 622.499 888.968 620.793L871.004 620.204C870.293 637.302 867.805 654.505 863.586 671.323C863.552 671.482 863.518 671.64 863.462 671.797C830.749 801.178 703.062 880.18 578.591 847.955C453.967 815.697 379.056 683.981 411.557 554.321C439.008 444.867 534.41 371.34 638.448 370.485C657.642 370.333 677.134 372.658 696.543 377.677C737.509 388.279 774.753 410.186 804.239 441.038L817.089 427.82C785.339 394.593 745.226 370.981 701.102 359.573C680.185 354.162 659.202 351.663 638.525 351.827C526.474 352.743 423.729 431.925 394.155 549.822C388.699 571.584 386.048 593.404 385.97 614.853Z" fill="#030D36"/>
<path d="M1600.95 191.543C1600.95 192.738 1601.49 193.914 1602.52 194.63C1606.48 197.389 1610.38 200.237 1614.13 203.096C1615.72 204.311 1617.98 203.94 1619.17 202.276C1620.36 200.612 1620.04 198.256 1618.44 197.052C1614.61 194.118 1610.61 191.206 1606.58 188.407C1604.94 187.258 1602.69 187.722 1601.57 189.448C1601.15 190.086 1600.94 190.829 1600.94 191.554L1600.95 191.543Z" fill="#030D36"/>
<path d="M1061.9 490.956C1061.87 499.682 1062.15 508.487 1062.73 517.13C1062.87 519.181 1064.6 520.713 1066.57 520.552C1068.55 520.392 1070.06 518.616 1069.92 516.531C1069.25 506.563 1069 496.429 1069.14 486.392C1069.14 486.392 1069.15 486.369 1069.15 486.346C1069.15 484.305 1067.58 482.647 1065.61 482.635C1063.62 482.634 1061.99 484.286 1061.95 486.36C1061.93 487.895 1061.92 489.432 1061.91 490.968L1061.9 490.956ZM1066.05 437.028C1066.04 438.84 1067.32 440.42 1069.09 440.681C1071.05 440.979 1072.89 439.559 1073.2 437.516C1074.7 427.608 1076.63 417.638 1078.93 407.877C1079.43 405.859 1078.22 403.859 1076.3 403.393C1074.38 402.926 1072.42 404.177 1071.95 406.174C1069.6 416.149 1067.62 426.322 1066.09 436.435C1066.07 436.628 1066.04 436.821 1066.05 437.005L1066.05 437.028ZM1086.35 359.73C1086.35 361.221 1087.2 362.622 1088.63 363.192C1090.47 363.94 1092.57 362.974 1093.3 361.041C1096.87 351.667 1100.85 342.356 1105.16 333.367C1106.05 331.525 1105.32 329.284 1103.54 328.379C1101.76 327.486 1099.6 328.253 1098.71 330.118C1094.31 339.296 1090.25 348.808 1086.61 358.371C1086.44 358.819 1086.35 359.283 1086.35 359.73ZM1122.56 288.829C1122.55 290.022 1123.09 291.195 1124.11 291.897C1125.75 293.044 1127.99 292.581 1129.12 290.87C1134.58 282.569 1140.45 274.4 1146.59 266.571C1147.87 264.962 1147.63 262.617 1146.1 261.317C1144.56 260.017 1142.3 260.284 1141.03 261.892C1134.75 269.884 1128.75 278.228 1123.17 286.704C1122.76 287.352 1122.53 288.082 1122.54 288.805L1122.56 288.829ZM1173.01 227.951C1173 228.856 1173.32 229.761 1173.96 230.482C1175.3 231.976 1177.58 232.055 1179.04 230.643C1186.13 223.786 1193.62 217.151 1201.26 210.929C1202.83 209.651 1203.11 207.296 1201.91 205.687C1200.7 204.077 1198.43 203.793 1196.87 205.071C1189.05 211.43 1181.42 218.192 1174.18 225.199C1173.41 225.937 1173.02 226.942 1173.01 227.951ZM1235.16 180.057C1235.15 180.699 1235.3 181.329 1235.63 181.926C1236.62 183.703 1238.82 184.293 1240.55 183.255C1248.95 178.164 1257.64 173.403 1266.37 169.07C1268.18 168.175 1268.95 165.947 1268.12 164.099C1267.28 162.24 1265.14 161.46 1263.35 162.344C1254.43 166.756 1245.55 171.619 1236.98 176.824C1235.82 177.523 1235.18 178.785 1235.18 180.082L1235.16 180.057ZM1305.82 147.463C1305.81 147.829 1305.87 148.201 1305.98 148.575C1306.56 150.542 1308.58 151.624 1310.48 150.999C1319.71 147.963 1329.19 145.286 1338.62 143.067C1340.57 142.617 1341.8 140.616 1341.38 138.591C1340.97 136.578 1339.06 135.32 1337.11 135.769C1327.48 138.033 1317.81 140.764 1308.38 143.868C1306.84 144.38 1305.83 145.858 1305.83 147.452L1305.82 147.463ZM1381.52 131.863C1381.52 131.863 1381.53 132.047 1381.54 132.15C1381.68 134.213 1383.4 135.733 1385.39 135.562C1393.89 134.814 1402.52 134.407 1411.03 134.336C1412.16 134.323 1413.3 134.322 1414.44 134.321C1416.43 134.323 1418.07 132.659 1418.09 130.597C1418.09 130.597 1418.09 130.574 1418.09 130.551C1418.09 128.509 1416.53 126.852 1414.54 126.85C1413.38 126.85 1412.22 126.849 1411.05 126.859C1402.35 126.928 1393.54 127.346 1384.85 128.115C1382.96 128.281 1381.52 129.935 1381.5 131.861L1381.52 131.863ZM1458.46 134.184C1458.46 135.996 1459.73 137.576 1461.51 137.849C1471.03 139.259 1480.63 141.123 1490.04 143.374C1491.97 143.83 1493.92 142.59 1494.38 140.581C1494.84 138.559 1493.67 136.562 1491.74 136.106C1482.13 133.806 1472.33 131.906 1462.61 130.46C1460.65 130.162 1458.81 131.582 1458.51 133.637C1458.48 133.83 1458.47 134.012 1458.46 134.207L1458.46 134.184ZM1532.82 154.138C1532.82 155.629 1533.67 157.03 1535.1 157.6C1544.11 161.166 1553.05 165.173 1561.68 169.504C1563.46 170.396 1565.63 169.619 1566.51 167.765C1567.39 165.911 1566.67 163.67 1564.89 162.777C1556.08 158.354 1546.94 154.263 1537.74 150.616C1535.88 149.878 1533.8 150.857 1533.08 152.779C1532.91 153.226 1532.83 153.68 1532.82 154.138Z" fill="#030D36"/>
<path d="M1069.95 565.871C1069.94 566.135 1069.97 566.401 1070.03 566.67C1071.06 571.625 1072.18 576.564 1073.37 581.335C1073.87 583.335 1075.83 584.518 1077.76 583.975C1079.69 583.432 1080.83 581.386 1080.35 579.387C1079.18 574.709 1078.09 569.875 1077.1 565.014C1076.68 562.998 1074.77 561.738 1072.82 562.188C1071.13 562.575 1069.97 564.149 1069.96 565.861L1069.95 565.871Z" fill="#030D36"/>
<path d="M1225.58 794.076C1225.58 795.34 1226.18 796.543 1227.29 797.253C1231.37 799.836 1235.58 802.383 1239.82 804.817C1241.56 805.812 1243.76 805.161 1244.74 803.344C1245.72 801.528 1245.12 799.256 1243.38 798.261C1239.23 795.868 1235.09 793.383 1231.1 790.852C1229.41 789.791 1227.18 790.337 1226.13 792.114C1225.76 792.721 1225.59 793.41 1225.58 794.076Z" fill="#030D36"/>
<path d="M1280.47 822.832C1280.47 824.323 1281.32 825.724 1282.75 826.294C1291.74 829.893 1301.02 833.132 1310.33 835.961C1312.23 836.53 1314.25 835.398 1314.82 833.419C1315.39 831.44 1314.32 829.359 1312.42 828.79C1303.29 826.032 1294.21 822.851 1285.4 819.323C1283.56 818.575 1281.46 819.541 1280.73 821.474C1280.56 821.921 1280.47 822.385 1280.47 822.832ZM1353.52 842.842C1353.52 844.653 1354.78 846.221 1356.56 846.494C1366.16 847.979 1375.92 849.061 1385.58 849.702C1387.56 849.84 1389.29 848.264 1389.43 846.221C1389.58 844.132 1388.1 842.378 1386.11 842.25C1376.65 841.624 1367.09 840.567 1357.7 839.108C1355.75 838.8 1353.9 840.207 1353.59 842.25C1353.56 842.443 1353.55 842.648 1353.54 842.843L1353.52 842.842ZM1429.2 845.775C1429.2 845.775 1429.2 845.947 1429.2 846.028C1429.32 848.089 1431.04 849.631 1433.02 849.471C1442.7 848.736 1452.48 847.55 1462.07 845.972C1464.04 845.651 1465.4 843.727 1465.1 841.7C1464.82 839.661 1462.99 838.283 1461.02 838.605C1451.61 840.161 1442.05 841.305 1432.58 842.043C1430.67 842.185 1429.2 843.837 1429.2 845.798L1429.2 845.775ZM1503.83 831.365C1503.83 831.709 1503.88 832.068 1503.97 832.43C1504.53 834.395 1506.54 835.51 1508.44 834.909C1517.75 831.992 1527.05 828.617 1536.11 824.891C1537.96 824.126 1538.89 821.966 1538.18 820.035C1537.47 818.117 1535.39 817.18 1533.52 817.944C1524.65 821.591 1515.53 824.888 1506.41 827.76C1504.84 828.247 1503.81 829.746 1503.81 831.363L1503.83 831.365ZM1573.81 800.425C1573.81 801.044 1573.95 801.661 1574.26 802.234C1575.22 804.032 1577.4 804.666 1579.14 803.653C1587.64 798.707 1596.05 793.33 1604.12 787.656C1605.78 786.487 1606.22 784.178 1605.13 782.474C1604.02 780.768 1601.79 780.326 1600.14 781.494C1592.23 787.043 1583.99 792.305 1575.67 797.16C1574.48 797.845 1573.81 799.129 1573.81 800.448L1573.81 800.425ZM1635.79 754.511C1635.78 755.393 1636.07 756.274 1636.68 756.982C1638 758.519 1640.27 758.631 1641.77 757.245C1649.05 750.494 1656.14 743.363 1662.84 736.032C1664.21 734.523 1664.16 732.168 1662.73 730.75C1661.29 729.342 1659.02 729.424 1657.64 730.921C1651.07 738.112 1644.12 745.093 1636.99 751.705C1636.19 752.451 1635.78 753.478 1635.78 754.499L1635.79 754.511ZM1686.73 695.796C1686.72 696.954 1687.24 698.102 1688.21 698.824C1689.82 700.014 1692.07 699.61 1693.24 697.925C1698.93 689.71 1704.37 681.133 1709.38 672.469C1710.39 670.682 1709.85 668.408 1708.15 667.36C1706.45 666.313 1704.24 666.915 1703.21 668.69C1698.3 677.177 1692.99 685.557 1687.42 693.62C1686.96 694.287 1686.74 695.04 1686.74 695.808L1686.73 695.796ZM1724.11 627.029C1724.1 628.485 1724.93 629.85 1726.29 630.45C1728.12 631.231 1730.24 630.335 1731.02 628.44C1734.83 619.176 1738.33 609.615 1741.41 600.002C1742.05 598.041 1741.01 595.938 1739.13 595.302C1737.25 594.678 1735.21 595.762 1734.58 597.713C1731.55 607.124 1728.14 616.484 1724.4 625.558C1724.2 626.037 1724.12 626.536 1724.1 627.017L1724.11 627.029ZM1746.24 551.612C1746.24 553.378 1747.43 554.941 1749.17 555.257C1751.12 555.611 1753 554.263 1753.37 552.225C1755.19 542.282 1756.6 532.186 1757.61 522.187C1757.78 520.135 1756.38 518.317 1754.4 518.133C1752.43 517.949 1750.65 519.454 1750.46 521.504C1749.48 531.288 1748.08 541.178 1746.3 550.917C1746.26 551.143 1746.25 551.372 1746.24 551.612ZM1749.86 443.308C1749.86 443.457 1749.87 443.618 1749.89 443.769C1751.02 453.538 1751.75 463.486 1752.07 473.325C1752.14 475.383 1753.8 476.978 1755.78 476.876C1757.78 476.786 1759.36 475.072 1759.25 472.978C1758.93 462.932 1758.17 452.776 1757.02 442.787C1756.79 440.741 1755 439.309 1753.02 439.572C1751.2 439.824 1749.86 441.438 1749.85 443.296L1749.86 443.308Z" fill="#030D36"/>
<path d="M1736.53 381.024C1736.53 381.391 1736.59 381.763 1736.69 382.138C1738.08 386.855 1739.4 391.635 1740.59 396.326C1741.09 398.326 1743.06 399.498 1744.98 398.943C1746.92 398.4 1748.07 396.343 1747.57 394.343C1746.36 389.547 1745.01 384.684 1743.59 379.85C1743 377.879 1740.98 376.795 1739.08 377.42C1737.53 377.933 1736.52 379.414 1736.52 381.011L1736.53 381.024Z" fill="#030D36"/>
<path d="M1652.19 372.894C1653.08 374.461 1652.91 376.459 1651.76 377.86L1618.97 417.916C1625.93 441.142 1629.35 465.729 1628.74 490.851L1670.64 519.285C1672.12 520.283 1672.79 522.145 1672.36 523.918L1657.11 584.735C1656.66 586.518 1655.18 587.804 1653.42 587.98L1603.22 592.584C1591.93 614.926 1577.34 634.856 1560.3 651.881L1570.2 702.992C1570.55 704.785 1569.76 706.625 1568.24 707.564L1516.12 739.873C1514.6 740.812 1512.68 740.666 1511.34 739.481L1473.1 705.928C1450.63 713.409 1426.88 717.241 1402.67 716.894L1374.78 760.692C1373.8 762.231 1372 762.955 1370.3 762.526L1311.84 747.395C1310.13 746.954 1308.9 745.433 1308.75 743.608L1304.89 691.587C1283.48 680.123 1264.43 665.217 1248.22 647.73L1198.83 658.592C1197.1 658.976 1195.33 658.175 1194.44 656.609L1163.89 602.908C1163.01 601.341 1163.17 599.343 1164.33 597.942L1197.11 557.886C1190.15 534.66 1186.73 510.072 1187.34 484.951L1145.44 456.517C1143.97 455.518 1143.29 453.656 1143.72 451.883L1158.98 391.067C1159.42 389.283 1160.9 387.997 1162.66 387.821L1212.86 383.218C1224.16 360.876 1238.74 340.946 1255.79 323.92L1245.88 272.809C1245.53 271.016 1246.32 269.176 1247.84 268.237L1299.96 235.929C1301.48 234.99 1303.41 235.136 1304.74 236.32L1342.99 269.874C1365.46 262.393 1389.2 258.561 1413.41 258.908L1441.3 215.11C1442.28 213.571 1444.08 212.847 1445.79 213.276L1504.24 228.406C1505.96 228.847 1507.18 230.368 1507.33 232.193L1511.19 284.215C1532.6 295.679 1551.65 310.584 1567.87 328.071L1617.25 317.21C1618.99 316.825 1620.75 317.626 1621.64 319.193L1652.19 372.894Z" fill="#F9F9F9"/>
<path d="M1348.96 488.301C1348.94 494.111 1349.73 499.944 1351.34 505.672C1355.74 521.335 1365.78 534.21 1379.61 541.918C1393.43 549.636 1409.39 551.279 1424.52 546.524C1439.67 541.782 1452.2 531.218 1459.8 516.795C1467.4 502.372 1469.16 485.796 1464.77 470.133C1460.37 454.47 1450.33 441.595 1436.5 433.888C1422.68 426.17 1406.72 424.527 1391.58 429.281C1376.43 434.023 1363.9 444.588 1356.31 459.011C1351.48 468.172 1349.02 478.199 1348.98 488.303L1348.96 488.301ZM1456.31 487.563C1456.28 495.83 1454.27 504.004 1450.32 511.505C1444.12 523.291 1433.88 531.926 1421.51 535.793C1409.15 539.673 1396.1 538.337 1384.82 532.025C1373.52 525.724 1365.32 515.205 1361.73 502.412C1358.12 489.619 1359.57 476.076 1365.78 464.301C1371.99 452.514 1382.22 443.88 1394.59 440.012C1406.96 436.132 1420.01 437.468 1431.29 443.78C1442.58 450.082 1450.79 460.601 1454.38 473.393C1455.69 478.067 1456.34 482.833 1456.32 487.575L1456.31 487.563Z" fill="#030D36"/>
<path d="M1255.67 489.705C1255.44 559.564 1300.61 623.072 1368.71 640.702C1381.29 643.958 1393.9 645.458 1406.33 645.35C1473.68 644.805 1535.42 597.215 1553.21 526.353C1553.53 525.089 1553.82 523.801 1554.12 522.512C1556.06 513.873 1557.32 505.095 1557.84 496.345C1557.91 495.327 1557.96 494.298 1558 493.267L1547.2 492.914C1546.77 503.198 1545.27 513.533 1542.74 523.636C1542.72 523.738 1542.69 523.828 1542.66 523.917C1523 601.677 1446.25 649.16 1371.44 629.798C1296.55 610.408 1251.52 531.254 1271.05 453.314C1287.54 387.53 1344.89 343.332 1407.4 342.828C1418.94 342.737 1430.65 344.129 1442.32 347.15C1466.94 353.52 1489.33 366.695 1507.04 385.228L1514.77 377.292C1495.68 357.318 1471.57 343.14 1445.06 336.281C1432.48 333.025 1419.88 331.525 1407.45 331.633C1340.09 332.178 1278.35 379.768 1260.56 450.629C1257.28 463.711 1255.69 476.831 1255.64 489.714L1255.67 489.705Z" fill="#030D36"/>
<path d="M1734.66 2979.91L1645.64 3618.32H2678.28L2543.78 2979.91H1734.66Z" fill="#090D1E"/>
<path d="M0 935.772V2835.94C0 2992.25 119.85 3120.08 270.196 3124.12C937.953 3142.02 3273.43 3185.41 3909.09 3175.67C4018.34 3173.99 4106.85 3083.13 4109.99 2969.61C4122.25 2528.18 4142.16 1466.66 4068.49 973.845C4052.98 870.066 3968.69 792.456 3867.69 789.102C3308.2 770.503 832.436 711.43 197.08 726.252C87.4924 728.82 0 821.856 0 935.772Z" fill="#090D1E"/>
<path d="M114.718 926.526V2731.82C114.718 2823.09 185.203 2897.45 273.001 2898.81L3817.63 2944.33C3904.67 2945.69 3976.03 2872.9 3976.35 2782.42L3982.28 993.244C3982.51 928.551 3932.91 875.536 3870.69 873.965L241.646 797.759C172.048 795.991 114.703 854.158 114.703 926.526H114.718Z" fill="#F9F9F9"/>
<path opacity="0.65" d="M4003.04 3018.32H4002.95L114.631 2949.45C111.913 2949.41 109.762 2947.08 109.805 2944.26C109.849 2941.43 112.117 2939.27 114.806 2939.22L4003.12 3008.09C4005.84 3008.13 4007.99 3010.46 4007.95 3013.28C4007.91 3016.08 4005.71 3018.32 4003.04 3018.32Z" fill="#F9F9F9"/>
<path opacity="0.65" d="M2097.22 3102.42C2072.21 3102.42 2051.86 3081.27 2051.86 3055.27C2051.86 3029.27 2072.21 3008.12 2097.22 3008.12C2122.24 3008.12 2142.59 3029.27 2142.59 3055.27C2142.59 3081.27 2122.24 3102.42 2097.22 3102.42ZM2097.22 3018.32C2077.63 3018.32 2061.68 3034.89 2061.68 3055.26C2061.68 3075.62 2077.63 3092.2 2097.22 3092.2C2116.82 3092.2 2132.76 3075.62 2132.76 3055.26C2132.76 3034.89 2116.82 3018.32 2097.22 3018.32Z" fill="#F9F9F9"/>
<path d="M2900.71 3788.08H1389.37C1348.31 3788.08 1317.47 3757.7 1325.41 3725.06L1344.8 3645.35C1350.63 3621.37 1376.01 3603.77 1406.14 3602.81L2863.14 3555.55C2894.62 3554.52 2922.5 3571.9 2929.36 3596.81L2964.32 3723.78C2973.41 3756.76 2942.43 3788.08 2900.7 3788.08H2900.71Z" fill="#090D1E"/>
<path d="M2202.96 3624.38C2200.28 3624.38 2198.09 3622.14 2198.04 3619.35C2198 3616.52 2200.17 3614.21 2202.88 3614.17L2265.32 3613.22C2267.92 3613.22 2270.26 3615.44 2270.3 3618.25C2270.35 3621.07 2268.18 3623.38 2265.46 3623.43L2203.03 3624.38H2202.96Z" fill="#F9F9F9"/>
<path d="M1381.38 3744.11C1381.11 3744.11 1380.85 3744.1 1380.59 3744.05C1377.92 3743.61 1376.08 3740.99 1376.51 3738.21L1385.42 3680.22C1390.2 3649.07 1415.69 3626.13 1446.05 3625.66L2108.25 3615.6H2108.32C2111 3615.6 2113.19 3617.84 2113.24 3620.63C2113.28 3623.46 2111.11 3625.77 2108.4 3625.82L1446.19 3635.88C1420.64 3636.27 1399.15 3655.59 1395.13 3681.82L1386.22 3739.81C1385.82 3742.31 1383.74 3744.11 1381.38 3744.11Z" fill="#F9F9F9"/>
<g opacity="0.53">
<path d="M2175.8 1052.71H2082.56V2761.84H2175.8V1052.71Z" fill="#C7C7C7"/>
<path d="M2331.57 1052.71H2238.34V2761.84H2331.57V1052.71Z" fill="#C7C7C7"/>
<path d="M2487.37 1052.71H2394.13V2761.84H2487.37V1052.71Z" fill="#C7C7C7"/>
<path d="M2643.14 1052.71H2549.91V2761.84H2643.14V1052.71Z" fill="#C7C7C7"/>
<path d="M2798.91 1052.71H2705.68V2761.84H2798.91V1052.71Z" fill="#C7C7C7"/>
<path d="M2954.7 1052.71H2861.47V2761.84H2954.7V1052.71Z" fill="#C7C7C7"/>
<path d="M3110.48 1052.71H3017.25V2761.84H3110.48V1052.71Z" fill="#C7C7C7"/>
</g>
<path d="M2175.8 1867.39H2082.56V2761.84H2175.8V1867.39Z" fill="url(#paint0_linear_302_4795)"/>
<path d="M2331.57 2174.8H2238.34V2761.84H2331.57V2174.8Z" fill="url(#paint1_linear_302_4795)"/>
<path d="M2487.37 1415.05H2394.13V2761.84H2487.37V1415.05Z" fill="url(#paint2_linear_302_4795)"/>
<path d="M2643.14 2438.3H2549.91V2761.85H2643.14V2438.3Z" fill="url(#paint3_linear_302_4795)"/>
<path d="M2798.91 1595.11H2705.68V2761.84H2798.91V1595.11Z" fill="url(#paint4_linear_302_4795)"/>
<path d="M2954.7 1797.12H2861.47V2761.84H2954.7V1797.12Z" fill="url(#paint5_linear_302_4795)"/>
<path d="M3110.48 2016.7H3017.25V2761.84H3110.48V2016.7Z" fill="url(#paint6_linear_302_4795)"/>
<path opacity="0.57" d="M544.943 974.615C419.86 974.615 318.457 1080.01 318.457 1210.02C318.457 1340.02 419.86 1445.42 544.943 1445.42C670.026 1445.42 771.429 1340.02 771.429 1210.02C771.429 1080.01 670.026 974.615 544.943 974.615ZM544.943 1344.13C473.673 1344.13 415.907 1284.09 415.907 1210.02C415.907 1135.94 473.673 1075.9 544.943 1075.9C616.213 1075.9 673.98 1135.94 673.98 1210.02C673.98 1284.09 616.213 1344.13 544.943 1344.13Z" fill="#C7C7C7"/>
<mask id="mask0_302_4795" style="mask-type:luminance" maskUnits="userSpaceOnUse" x="318" y="974" width="454" height="472">
<path d="M544.943 974.615C419.86 974.615 318.457 1080.01 318.457 1210.02C318.457 1340.02 419.86 1445.42 544.943 1445.42C670.026 1445.42 771.429 1340.02 771.429 1210.02C771.429 1080.01 670.026 974.615 544.943 974.615ZM544.943 1344.13C473.673 1344.13 415.907 1284.09 415.907 1210.02C415.907 1135.94 473.673 1075.9 544.943 1075.9C616.213 1075.9 673.98 1135.94 673.98 1210.02C673.98 1284.09 616.213 1344.13 544.943 1344.13Z" fill="white"/>
</mask>
<g mask="url(#mask0_302_4795)">
<path d="M901.439 1158.24H228.652V1454.16H901.439V1158.24Z" fill="url(#paint7_linear_302_4795)"/>
</g>
<path opacity="0.57" d="M1097.05 974.615C971.97 974.615 870.566 1080.01 870.566 1210.02C870.566 1340.02 971.97 1445.42 1097.05 1445.42C1222.14 1445.42 1323.54 1340.02 1323.54 1210.02C1323.54 1080.01 1222.14 974.615 1097.05 974.615ZM1097.05 1344.13C1025.78 1344.13 968.016 1284.09 968.016 1210.02C968.016 1135.94 1025.78 1075.9 1097.05 1075.9C1168.32 1075.9 1226.09 1135.94 1226.09 1210.02C1226.09 1284.09 1168.32 1344.13 1097.05 1344.13Z" fill="#C7C7C7"/>
<mask id="mask1_302_4795" style="mask-type:luminance" maskUnits="userSpaceOnUse" x="870" y="974" width="454" height="472">
<path d="M1097.05 974.615C971.97 974.615 870.566 1080.01 870.566 1210.02C870.566 1340.02 971.97 1445.42 1097.05 1445.42C1222.14 1445.42 1323.54 1340.02 1323.54 1210.02C1323.54 1080.01 1222.14 974.615 1097.05 974.615ZM1097.05 1344.13C1025.78 1344.13 968.016 1284.09 968.016 1210.02C968.016 1135.94 1025.78 1075.9 1097.05 1075.9C1168.32 1075.9 1226.09 1135.94 1226.09 1210.02C1226.09 1284.09 1168.32 1344.13 1097.05 1344.13Z" fill="white"/>
</mask>
<g mask="url(#mask1_302_4795)">
<path d="M1453.55 1043.87H780.762V1454.18H1453.55V1043.87Z" fill="url(#paint8_linear_302_4795)"/>
</g>
<path opacity="0.57" d="M1649.17 974.615C1524.09 974.615 1422.69 1080.01 1422.69 1210.02C1422.69 1340.02 1524.09 1445.42 1649.17 1445.42C1774.26 1445.42 1875.66 1340.02 1875.66 1210.02C1875.66 1080.01 1774.26 974.615 1649.17 974.615ZM1649.17 1344.13C1577.9 1344.13 1520.14 1284.09 1520.14 1210.02C1520.14 1135.94 1577.9 1075.9 1649.17 1075.9C1720.44 1075.9 1778.21 1135.94 1778.21 1210.02C1778.21 1284.09 1720.44 1344.13 1649.17 1344.13Z" fill="#C7C7C7"/>
<mask id="mask2_302_4795" style="mask-type:luminance" maskUnits="userSpaceOnUse" x="1422" y="974" width="454" height="472">
<path d="M1649.17 974.615C1524.09 974.615 1422.69 1080.01 1422.69 1210.02C1422.69 1340.02 1524.09 1445.42 1649.17 1445.42C1774.26 1445.42 1875.66 1340.02 1875.66 1210.02C1875.66 1080.01 1774.26 974.615 1649.17 974.615ZM1649.17 1344.13C1577.9 1344.13 1520.14 1284.09 1520.14 1210.02C1520.14 1135.94 1577.9 1075.9 1649.17 1075.9C1720.44 1075.9 1778.21 1135.94 1778.21 1210.02C1778.21 1284.09 1720.44 1344.13 1649.17 1344.13Z" fill="white"/>
</mask>
<g mask="url(#mask2_302_4795)">
<path d="M2005.67 1306.21H1332.88V1454.16H2005.67V1306.21Z" fill="url(#paint9_linear_302_4795)"/>
</g>
<path opacity="0.44" d="M1823.09 2771.3L370.246 2759.95C341.581 2759.72 318.469 2735.52 318.469 2705.73V1929.89C318.469 1899.95 341.828 1875.67 370.639 1875.67H1823.5C1852.31 1875.67 1875.67 1899.95 1875.67 1929.89V2717.07C1875.67 2747.18 1852.08 2771.52 1823.11 2771.3H1823.09Z" fill="#C7C7C7"/>
<path opacity="0.44" d="M1597.74 2225.95L1410.93 2020.66L1143.06 2323.49L954.044 2111.51L776.777 2319.79L640.836 2148.13L372.922 2438.04V2647.68C372.922 2675.39 394.421 2697.92 421.08 2698.11L1772.34 2708.66C1799.27 2708.87 1821.22 2686.22 1821.22 2658.23V2087.91L1597.76 2225.95H1597.74Z" fill="#959595"/>
<path d="M1603.78 2220.25H1598.87V2708.67H1603.78V2220.25Z" fill="#F9F9F9"/>
<path d="M1413.37 2020.66H1408.45V2705.85H1413.37V2020.66Z" fill="#F9F9F9"/>
<path d="M1145.49 2319.79H1140.58V2703.75H1145.49V2319.79Z" fill="#F9F9F9"/>
<path d="M961.503 2119.02H956.59V2703.75H961.503V2119.02Z" fill="#F9F9F9"/>
<path d="M779.21 2313.56H774.297V2703.75H779.21V2313.56Z" fill="#F9F9F9"/>
<path d="M646.148 2133.58H641.234V2700.01H646.148V2133.58Z" fill="#F9F9F9"/>
<path d="M681.614 2149.91C690.29 2128.14 680.343 2103.19 659.398 2094.17C638.452 2085.15 614.44 2095.49 605.764 2117.26C597.088 2139.03 607.034 2163.99 627.98 2173.01C648.925 2182.02 672.938 2171.68 681.614 2149.91Z" fill="#082599"/>
<path d="M803.797 2313.56C803.797 2329.08 791.688 2341.67 776.76 2341.67C761.831 2341.67 749.723 2329.08 749.723 2313.56C749.723 2298.05 761.831 2285.46 776.76 2285.46C791.688 2285.46 803.797 2298.05 803.797 2313.56Z" fill="#082599"/>
<path d="M986.082 2119.02C986.082 2134.53 973.973 2147.12 959.045 2147.12C944.116 2147.12 932.008 2134.53 932.008 2119.02C932.008 2103.5 944.116 2090.91 959.045 2090.91C973.973 2090.91 986.082 2103.5 986.082 2119.02Z" fill="#082599"/>
<path d="M1170.08 2319.79C1170.08 2335.3 1157.97 2347.89 1143.04 2347.89C1128.11 2347.89 1116 2335.3 1116 2319.79C1116 2304.27 1128.11 2291.69 1143.04 2291.69C1157.97 2291.69 1170.08 2304.27 1170.08 2319.79Z" fill="#082599"/>
<path d="M1437.97 2020.66C1437.97 2036.18 1425.86 2048.76 1410.93 2048.76C1396 2048.76 1383.89 2036.18 1383.89 2020.66C1383.89 2005.14 1396 1992.56 1410.93 1992.56C1425.86 1992.56 1437.97 2005.14 1437.97 2020.66Z" fill="#082599"/>
<path d="M1628.39 2220.25C1628.39 2235.77 1616.28 2248.35 1601.35 2248.35C1586.42 2248.35 1574.32 2235.77 1574.32 2220.25C1574.32 2204.74 1586.42 2192.15 1601.35 2192.15C1616.28 2192.15 1628.39 2204.74 1628.39 2220.25Z" fill="#082599"/>
<g opacity="0.48">
<path d="M738.256 1746.51H339.983C323.324 1746.51 309.82 1756.28 309.82 1768.34C309.82 1780.4 323.324 1790.17 339.983 1790.17H738.256C754.914 1790.17 768.418 1780.4 768.418 1768.34C768.418 1756.28 754.914 1746.51 738.256 1746.51Z" fill="#C7C7C7"/>
<path d="M738.256 1649.82H339.983C323.324 1649.82 309.82 1659.59 309.82 1671.65C309.82 1683.7 323.324 1693.48 339.983 1693.48H738.256C754.914 1693.48 768.418 1683.7 768.418 1671.65C768.418 1659.59 754.914 1649.82 738.256 1649.82Z" fill="#C7C7C7"/>
<path d="M738.256 1553.14H339.983C323.324 1553.14 309.82 1562.91 309.82 1574.97C309.82 1587.03 323.324 1596.8 339.983 1596.8H738.256C754.914 1596.8 768.418 1587.03 768.418 1574.97C768.418 1562.91 754.914 1553.14 738.256 1553.14Z" fill="#C7C7C7"/>
</g>
<g opacity="0.48">
<path d="M1291.88 1746.51H893.604C876.945 1746.51 863.441 1756.28 863.441 1768.34C863.441 1780.4 876.945 1790.17 893.604 1790.17H1291.88C1308.54 1790.17 1322.04 1780.4 1322.04 1768.34C1322.04 1756.28 1308.54 1746.51 1291.88 1746.51Z" fill="#C7C7C7"/>
<path d="M1291.88 1649.82H893.604C876.945 1649.82 863.441 1659.59 863.441 1671.65C863.441 1683.7 876.945 1693.48 893.604 1693.48H1291.88C1308.54 1693.48 1322.04 1683.7 1322.04 1671.65C1322.04 1659.59 1308.54 1649.82 1291.88 1649.82Z" fill="#C7C7C7"/>
<path d="M1291.88 1553.14H893.604C876.945 1553.14 863.441 1562.91 863.441 1574.97C863.441 1587.03 876.945 1596.8 893.604 1596.8H1291.88C1308.54 1596.8 1322.04 1587.03 1322.04 1574.97C1322.04 1562.91 1308.54 1553.14 1291.88 1553.14Z" fill="#C7C7C7"/>
</g>
<g opacity="0.48">
<path d="M1845.5 1746.51H1447.22C1430.57 1746.51 1417.06 1756.28 1417.06 1768.34C1417.06 1780.4 1430.57 1790.17 1447.22 1790.17H1845.5C1862.16 1790.17 1875.66 1780.4 1875.66 1768.34C1875.66 1756.28 1862.16 1746.51 1845.5 1746.51Z" fill="#C7C7C7"/>
<path d="M1845.5 1649.82H1447.22C1430.57 1649.82 1417.06 1659.59 1417.06 1671.65C1417.06 1683.7 1430.57 1693.48 1447.22 1693.48H1845.5C1862.16 1693.48 1875.66 1683.7 1875.66 1671.65C1875.66 1659.59 1862.16 1649.82 1845.5 1649.82Z" fill="#C7C7C7"/>
<path d="M1845.5 1553.14H1447.22C1430.57 1553.14 1417.06 1562.91 1417.06 1574.97C1417.06 1587.03 1430.57 1596.8 1447.22 1596.8H1845.5C1862.16 1596.8 1875.66 1587.03 1875.66 1574.97C1875.66 1562.91 1862.16 1553.14 1845.5 1553.14Z" fill="#C7C7C7"/>
</g>
<path opacity="0.91" d="M3660.84 1972.81C3732.81 1898.01 3732.81 1776.74 3660.84 1701.93C3588.87 1627.13 3472.19 1627.13 3400.22 1701.93C3328.25 1776.74 3328.25 1898.01 3400.22 1972.81C3472.19 2047.62 3588.87 2047.62 3660.84 1972.81Z" fill="#C7C7C7"/>
<path d="M3640.02 1796.88C3645.72 1811.29 3648.89 1827.08 3648.89 1843.62C3648.89 1911.56 3595.89 1966.65 3530.52 1966.65C3465.15 1966.65 3412.16 1911.56 3412.16 1843.62C3412.16 1775.68 3465.15 1720.59 3530.52 1720.59C3532.53 1720.59 3534.52 1720.65 3536.5 1720.75V1689.56C3534.52 1689.49 3532.53 1689.43 3530.52 1689.43C3448.58 1689.43 3382.17 1758.46 3382.17 1843.62C3382.17 1928.78 3448.58 1997.81 3530.52 1997.81C3612.46 1997.81 3678.88 1928.78 3678.88 1843.62C3678.88 1822.65 3674.84 1802.66 3667.55 1784.44L3640.02 1796.88Z" fill="#082599"/>
<path opacity="0.5" d="M3682 2110.03H3381.7C3362.85 2110.03 3347.57 2125.91 3347.57 2145.5C3347.57 2165.1 3362.85 2180.97 3381.7 2180.97H3682C3700.85 2180.97 3716.13 2165.1 3716.13 2145.5C3716.13 2125.91 3700.85 2110.03 3682 2110.03Z" fill="#C7C7C7"/>
<path opacity="0.91" d="M3660.06 1357.2C3732.03 1282.39 3732.03 1161.12 3660.06 1086.32C3588.09 1011.51 3471.41 1011.51 3399.44 1086.32C3327.47 1161.12 3327.47 1282.39 3399.44 1357.2C3471.41 1432 3588.09 1432 3660.06 1357.2Z" fill="#C7C7C7"/>
<path d="M3592.38 1332.1C3574.12 1344.09 3552.51 1351.05 3529.31 1351.05C3463.94 1351.05 3410.94 1295.97 3410.94 1228.02C3410.94 1160.08 3463.94 1105 3529.31 1105C3531.31 1105 3533.31 1105.06 3535.28 1105.15V1073.97C3533.31 1073.89 3531.31 1073.83 3529.31 1073.83C3447.37 1073.83 3380.95 1142.86 3380.95 1228.02C3380.95 1313.19 3447.37 1382.22 3529.31 1382.22C3557.9 1382.22 3584.6 1373.8 3607.25 1359.24L3592.38 1332.12V1332.1Z" fill="#082599"/>
<path opacity="0.5" d="M3682.79 1494.41H3382.49C3363.64 1494.41 3348.36 1510.29 3348.36 1529.89C3348.36 1549.48 3363.64 1565.36 3382.49 1565.36H3682.79C3701.65 1565.36 3716.92 1549.48 3716.92 1529.89C3716.92 1510.29 3701.65 1494.41 3682.79 1494.41Z" fill="#C7C7C7"/>
<path opacity="0.91" d="M3661.5 2591.54C3733.47 2516.74 3733.47 2395.47 3661.5 2320.66C3589.53 2245.86 3472.84 2245.86 3400.87 2320.66C3328.9 2395.47 3328.9 2516.74 3400.87 2591.54C3472.84 2666.35 3589.53 2666.35 3661.5 2591.54Z" fill="#C7C7C7"/>
<path d="M3631.55 2525.29C3610.24 2557.8 3574.35 2579.15 3533.67 2579.15C3468.3 2579.15 3415.3 2524.07 3415.3 2456.12C3415.3 2388.18 3468.3 2333.1 3533.67 2333.1C3535.67 2333.1 3537.66 2333.16 3539.64 2333.25V2302.07C3537.66 2301.99 3535.67 2301.93 3533.67 2301.93C3451.73 2301.93 3385.31 2370.96 3385.31 2456.12C3385.31 2541.29 3451.73 2610.32 3533.67 2610.32C3584.35 2610.32 3629.1 2583.89 3655.86 2543.59L3631.55 2525.3V2525.29Z" fill="#082599"/>
<path opacity="0.5" d="M3381.04 2793.46H3681.34C3700.19 2793.46 3715.47 2777.58 3715.47 2757.99C3715.47 2738.39 3700.19 2722.51 3681.34 2722.51H3381.04C3362.18 2722.51 3346.91 2738.39 3346.91 2757.99C3346.91 2777.58 3362.18 2793.46 3381.04 2793.46Z" fill="#C7C7C7"/>
</g>
<defs>
<linearGradient id="paint0_linear_302_4795" x1="2128.89" y1="2282.86" x2="2140.32" y2="3416.09" gradientUnits="userSpaceOnUse">
<stop stop-color="#030D36"/>
<stop offset="1" stop-color="#03B9E1"/>
</linearGradient>
<linearGradient id="paint1_linear_302_4795" x1="2283.2" y1="2280.04" x2="2294.63" y2="3412.66" gradientUnits="userSpaceOnUse">
<stop stop-color="#030D36"/>
<stop offset="1" stop-color="#03B9E1"/>
</linearGradient>
<linearGradient id="paint2_linear_302_4795" x1="2442.49" y1="2276.47" x2="2453.94" y2="3410.09" gradientUnits="userSpaceOnUse">
<stop stop-color="#030D36"/>
<stop offset="1" stop-color="#03B9E1"/>
</linearGradient>
<linearGradient id="paint3_linear_302_4795" x1="2593.47" y1="2274.46" x2="2604.89" y2="3405.65" gradientUnits="userSpaceOnUse">
<stop stop-color="#030D36"/>
<stop offset="1" stop-color="#03B9E1"/>
</linearGradient>
<linearGradient id="paint4_linear_302_4795" x1="2753.15" y1="2270.32" x2="2764.6" y2="3403.82" gradientUnits="userSpaceOnUse">
<stop stop-color="#030D36"/>
<stop offset="1" stop-color="#03B9E1"/>
</linearGradient>
<linearGradient id="paint5_linear_302_4795" x1="2907.97" y1="2267.32" x2="2919.4" y2="3400.64" gradientUnits="userSpaceOnUse">
<stop stop-color="#030D36"/>
<stop offset="1" stop-color="#03B9E1"/>
</linearGradient>
<linearGradient id="paint6_linear_302_4795" x1="3062.69" y1="2264.36" x2="3074.12" y2="3397.36" gradientUnits="userSpaceOnUse">
<stop stop-color="#030D36"/>
<stop offset="1" stop-color="#03B9E1"/>
</linearGradient>
<linearGradient id="paint7_linear_302_4795" x1="1242.21" y1="278.082" x2="419.18" y2="1434.82" gradientUnits="userSpaceOnUse">
<stop stop-color="#03B9E1"/>
<stop offset="1" stop-color="#030D36"/>
</linearGradient>
<linearGradient id="paint8_linear_302_4795" x1="1851.38" y1="17.4353" x2="1033.76" y2="1287" gradientUnits="userSpaceOnUse">
<stop stop-color="#03B9E1"/>
<stop offset="1" stop-color="#030D36"/>
</linearGradient>
<linearGradient id="paint9_linear_302_4795" x1="2000.45" y1="175.437" x2="1753.68" y2="1006.43" gradientUnits="userSpaceOnUse">
<stop stop-color="#0584C7"/>
<stop offset="0.0001" stop-color="#03B9E1"/>
<stop offset="1" stop-color="#030D36"/>
</linearGradient>
<clipPath id="clip0_302_4795">
<rect width="4122" height="3785" fill="white"/>
</clipPath>
</defs>
</svg>
